# xmcd CD database file
#
# Track frame offsets:
#	150
#	13087
#	24255
#	36122
#	46522
#	56895
#	70842
#	81760
#	94162
#	105312
#	117425
#	129717
#	141805
#	154512
#	166967
#	179867
#	192777
#	206635
#	218097
#	229640
#	242490
#	257395
#	270577
#
# Disc length: 3782 seconds
#
# Revision: 0
# Processed by: cddbd v1.5.1PL0 Copyright (c) Steve Scherf et al.
# Submitted via: CDex 1.50
#
DISCID=340ec417
DTITLE=Tex Morton - Tex Morton Regal Zonophone Collection Vol 1 1936 - 1938 CD 1
DYEAR=1993
DGENRE=Country
TTITLE0=Texas In The Spring
TTITLE1=Going Back To Texas
TTITLE2=Happy Yodeller
TTITLE3=Swiss Sweetheart
TTITLE4=Wyoming Willie
TTITLE5=You're Going To Leave The Old Home, Jim
TTITLE6=The Oregon Trail
TTITLE7=Carry Me Back To The Lone Prairie
TTITLE8=The Prairie Is A Lonesome Place At Night
TTITLE9=Sing you Cowboy
TTITLE10=Wrap Me Up In My Stockwhip And Blanket
TTITLE11=The Wandering Stockman
TTITLE12=Old Ship Of Mine
TTITLE13=Ragtime Cowboy Joe
TTITLE14=Just Dripping Along
TTITLE15=The Yodelling Bagman
TTITLE16=On The Gundagai Line
TTITLE17=All Set And Saddled
TTITLE18=Lonesome Valley Sally
TTITLE19=Take Me Back To Dream By The Old Mill Stream
TTITLE20=The Black Sheep
TTITLE21=You Only Have ONe Mother
TTITLE22=Old Pal Of My Boyhood Days
EXTD=YEAR: 1993
EXTT0=
EXTT1=
EXTT2=
EXTT3=
EXTT4=
EXTT5=
EXTT6=
EXTT7=
EXTT8=
EXTT9=
EXTT10=
EXTT11=
EXTT12=
EXTT13=
EXTT14=
EXTT15=
EXTT16=
EXTT17=
EXTT18=
EXTT19=
EXTT20=
EXTT21=
EXTT22=
PLAYORDER=
